# xmcd CD database file
#
# Track frame offsets:
#	150
#	26792
#	50412
#	60745
#	81895
#	104345
#	124222
#	137932
#	175222
#	200330
#	227745
#
# Disc length: 3343 seconds
#
# Revision: 0
# Processed by: cddbd v1.5.2PL0 Copyright (c) Steve Scherf et al.
# Submitted via: CDex 1.51
#
DISCID=9b0d0d0b
DTITLE=Nuova Era and meditazione - NE18
DYEAR=1997
DGENRE=New Age
TTITLE0=Patrick O'Hearn - 3 circles
TTITLE1=David Arkenstone - The forgotten lands
TTITLE2=Rogers and Shaw - Cloudburst
TTITLE3=Dean Evenson - Sunrise
TTITLE4=Marcomé - Memoria
TTITLE5=Bill Douglas - Sweet rain
TTITLE6=Mike Trim and Biddy Blyth - Ancient chant 1
TTITLE7=Megabyte - Vallee de mai
TTITLE8=Melosphere - Awakening
TTITLE9=Tom Barabas - Kaleidoscope
TTITLE10=Jon Mark - Kintamani
EXTD=YEAR: 1997
EXTT0=
EXTT1=
EXTT2=
EXTT3=
EXTT4=
EXTT5=
EXTT6=
EXTT7=
EXTT8=
EXTT9=
EXTT10=
PLAYORDER=
